<?xml version="1.0" encoding="utf-8"?>
<!-- Generator: Adobe Illustrator 22.0.1, SVG Export Plug-In . SVG Version: 6.00 Build 0)  -->
<svg version="1.1" id="레이어_1" xmlns="http://www.w3.org/2000/svg" xmlns:xlink="http://www.w3.org/1999/xlink" x="0px"
	 y="0px" viewBox="0 0 464 136" style="enable-background:new 0 0 464 136;" xml:space="preserve">
<style type="text/css">
	.st0{fill:#2D89EF;}
	.st1{fill:#FFFFFF;}
	.st2{fill:#4A4A4A;}
</style>
<path class="st0" d="M112.8,23H29.3C18.1,23,9,32.1,9,43.3v52.5c0,11.2,9.1,20.3,20.3,20.3h83.5c11.2,0,20.3-9.1,20.3-20.3V43.3
	C133,32.1,123.9,23,112.8,23z"/>
<g>
	<g>
		<path class="st1" d="M52.7,95.5c-5.5-7.3-10.1-15.3-13.1-24c-1.8-5.2-7.4-17.8-0.7-21.2c5.9-3,11.8,1.6,14.9,6.4
			c5,7.6,5.9,17.2,8,25.9c1.5,6.4,10.5,7.2,13.7,1.8c5-8.4,7.5-18.4,13.3-26.3c3.4-4.6,12.4-11.2,17.3-4.8
			c4.9,6.4-0.6,15.4-4.9,20.3C94.7,81.1,87.1,87.4,82,96c-4.9,8.4,8.1,15.9,13,7.6c6.5-11.2,18.3-18.2,24.2-29.9
			c5.2-10.4,5.3-24.3-4-32.5c-9.6-8.6-24.1-6-33.1,2C72,52,69.1,65.6,62.5,76.8c4.6,0.6,9.1,1.2,13.7,1.8
			c-2.9-12.4-4.9-25.1-13.7-34.9c-7.6-8.4-19.6-11.8-30.1-6.8c-12.3,5.9-12.7,18.7-9.8,30.4c3.2,12.9,9.1,25.2,17.1,35.8
			c2.4,3.3,6.5,4.9,10.3,2.7C53.2,103.9,55.1,98.7,52.7,95.5L52.7,95.5z"/>
	</g>
</g>
<g>
	<g>
		<path class="st2" d="M178.1,96.3c-4.7-5.9-8.6-12.5-11.4-19.4c-2-5.1-7-15.6-1.3-19.7c5.8-4.2,12.4,0.9,15.7,5.8
			c4.1,6.2,5.3,14.1,7.3,21.1c1,3.6,6.4,4.6,8.2,1.1c3.5-6.9,5.2-14.6,9-21.3c3.2-5.6,12.6-14.1,18.1-6c4.5,6.6-0.2,15-4.4,20.3
			c-4.7,6-10.2,11.2-13.7,18c-2.6,5.2,5.1,9.7,7.8,4.5c5-9.8,14.5-16.4,18.8-26.5c3.5-8.1,3.1-18.5-4-24.7c-7.3-6.4-18.1-4-24.7,2.2
			c-8.1,7.7-9.8,19.3-14.7,28.9c2.7,0.4,5.5,0.7,8.2,1.1c-2.8-10.1-4.8-21.2-12.6-28.8c-6.3-6.1-15.8-8.4-23.6-3.5
			c-8.8,5.5-7.5,15.8-4.8,24.4c3.3,10.6,8.7,20.3,15.6,28.9C175.3,107.2,181.7,100.8,178.1,96.3L178.1,96.3z"/>
	</g>
</g>
<g>
	<g>
		<path class="st2" d="M267.8,101.5c12.1-6.3,22.1-16.5,27.7-28.9c4.8-10.5,10.2-31-5.2-35.7c-15.5-4.7-20.3,16.6-19.8,27.5
			c0.7,13.5,6.9,26.5,17.5,35.1c4.4,3.6,10.9-2.7,6.4-6.4c-7.2-5.9-12-13.7-14-22.8c-1-4.6-1.2-9.5-0.4-14.1
			c0.7-3.9,3.9-14.7,9.5-9.6c6.7,6.1-1.5,21.9-5.2,27.9c-5.1,8.2-12.4,14.7-21,19.2C258.1,96.4,262.7,104.2,267.8,101.5L267.8,101.5
			z"/>
	</g>
</g>
<g>
	<g>
		<path class="st2" d="M306.3,71.8c-6.7,2.4-12.2,8.4-11.8,15.9c0.4,7,6.7,13.1,13.8,13c7.2-0.1,12.5-6.6,12.8-13.6
			c0.3-7.8-5.2-14.4-12.4-16.6c-5.5-1.7-7.9,7-2.4,8.7c3,0.9,5.6,3.5,5.9,6.8c0.1,2.4-1.2,5.5-3.9,5.7c-2.4,0.1-4.6-2.3-4.7-4.6
			c-0.2-3.1,2.5-5.7,5.2-6.7C314.1,78.5,311.8,69.8,306.3,71.8L306.3,71.8z"/>
	</g>
</g>
<g>
	<g>
		<path class="st2" d="M342.6,73.8c-12.1-6.7-27.7,12.7-20.5,23.7c3.6,5.5,11.1,6.1,16.2,2.5c6.4-4.4,7.1-12.7,7-19.8c-3,0-6,0-9,0
			c0.9,6.7,1.7,13.5,2.1,20.2c0.4,6.2,1.4,14.7-0.9,20.5c-1.6,4-4.6,2.9-6.4-0.2c-1.8-3.1-1.8-5.9,1.5-7.9c5.8-3.5,14.1-4,20.6-3
			c5.7,0.8,8.1-7.8,2.4-8.7c-9.8-1.4-23.3-0.9-31,6.3c-7,6.5-3.4,18.9,4,23.5c9.3,5.8,17.2-2.9,18.4-11.8c1.8-12.9-0.1-26.2-1.7-39
			c-0.7-5.6-9.1-6-9,0c0,2-0.8,16.9-6.1,12.5c-3.1-2.5,4.2-13.1,7.8-11.1C343.1,84.4,347.7,76.6,342.6,73.8L342.6,73.8z"/>
	</g>
</g>
<g>
	<g>
		<path class="st2" d="M367,102c5.8,0,5.8-9,0-9C361.2,93,361.2,102,367,102L367,102z"/>
	</g>
</g>
<g>
	<g>
		<path class="st2" d="M404.7,54c-13-4.2-32.6,2.2-34.7,17.6c-2.2,16,19.1,25.3,32,25.4c5.8,0.1,5.8-8.9,0-9
			c-4.9,0-9.6-1.1-13.9-3.6c-3.8-2.2-10-6.7-9.2-11.8c1.7-9.9,15.7-12.4,23.4-9.9C407.9,64.5,410.2,55.8,404.7,54L404.7,54z"/>
	</g>
</g>
<g>
	<g>
		<path class="st2" d="M394,83c5.7,0.3,11.3,0.7,17,1c5.8,0.3,5.8-8.7,0-9c-5.7-0.3-11.3-0.7-17-1C388.2,73.6,388.2,82.6,394,83
			L394,83z"/>
	</g>
</g>
<g>
	<g>
		<path class="st2" d="M399.9,81.5c-0.5,6.5-1,13-1.5,19.5c-0.4,5.8,8.6,5.7,9,0c0.5-6.5,1-13,1.5-19.5
			C409.3,75.7,400.3,75.7,399.9,81.5L399.9,81.5z"/>
	</g>
</g>
<g>
	<g>
		<path class="st2" d="M443.5,57c-11.7-8.8-29-2.1-31.2,12.5c-2.5,16.2,13.4,25.6,26.4,29.8c5.5,1.8,7.9-6.9,2.4-8.7
			c-8.1-2.7-18.7-7.1-20-16.8c-1.4-10.4,10.4-14.7,17.8-9.1C443.5,68.2,448,60.4,443.5,57L443.5,57z"/>
	</g>
</g>
<g>
	<g>
		<path class="st2" d="M429,83.5c6.5,0,13,0,19.5,0c5.8,0,5.8-9,0-9c-6.5,0-13,0-19.5,0C423.2,74.5,423.2,83.5,429,83.5L429,83.5z"
			/>
	</g>
</g>
<g>
	<g>
		<path class="st2" d="M437,79.5c0,7.3,0,14.7,0,22c0,5.8,9,5.8,9,0c0-7.3,0-14.7,0-22C446,73.7,437,73.7,437,79.5L437,79.5z"/>
	</g>
</g>
<g>
	<g>
		<path class="st2" d="M226.1,76.5c-1.3,13.3,9.7,24.5,22.9,23.8c5.8-0.3,5.8-9.3,0-9c-8.7,0.4-14.7-6.2-13.9-14.8
			C235.6,70.8,226.6,70.8,226.1,76.5L226.1,76.5z"/>
	</g>
</g>
<g>
	<g>
		<path class="st2" d="M253.9,73.5c-0.9,10.2-3.2,20.4-7.3,29.8c-1.7,3.9-3.9,8.2-8.2,9.7c-3.8,1.3-7.9,0.1-10.7-2.7
			c-4.1-4.1-10.5,2.3-6.4,6.4c8.5,8.3,22,7.4,29.1-2.1c8.4-11.1,11.2-27.6,12.4-41.1C263.4,67.7,254.4,67.7,253.9,73.5L253.9,73.5z"
			/>
	</g>
</g>
</svg>
